<svg xmlns="http://www.w3.org/2000/svg" viewBox="0 0 1920 1080">
  <defs>
    <radialGradient id="starGlow" cx="50%" cy="50%" r="50%">
      <stop offset="0%" style="stop-color:#ffffff;stop-opacity:1" />
      <stop offset="100%" style="stop-color:#ffffff;stop-opacity:0" />
    </radialGradient>
    <radialGradient id="nebula1" cx="30%" cy="20%" r="40%">
      <stop offset="0%" style="stop-color:#4a148c;stop-opacity:0.3" />
      <stop offset="50%" style="stop-color:#7b1fa2;stop-opacity:0.2" />
      <stop offset="100%" style="stop-color:#000051;stop-opacity:0.1" />
    </radialGradient>
    <radialGradient id="nebula2" cx="70%" cy="80%" r="35%">
      <stop offset="0%" style="stop-color:#1a237e;stop-opacity:0.3" />
      <stop offset="50%" style="stop-color:#3949ab;stop-opacity:0.2" />
      <stop offset="100%" style="stop-color:#000051;stop-opacity:0.1" />
    </radialGradient>
  </defs>
  
  <!-- 深空背景 -->
  <rect width="100%" height="100%" fill="url(#gradient)">
    <defs>
      <linearGradient id="gradient" x1="0%" y1="0%" x2="0%" y2="100%">
        <stop offset="0%" style="stop-color:#000051;stop-opacity:1" />
        <stop offset="50%" style="stop-color:#1a0033;stop-opacity:1" />
        <stop offset="100%" style="stop-color:#000000;stop-opacity:1" />
      </linearGradient>
    </defs>
  </rect>
  
  <!-- 星云效果 -->
  <ellipse cx="576" cy="216" rx="400" ry="200" fill="url(#nebula1)" opacity="0.6"/>
  <ellipse cx="1344" cy="864" rx="350" ry="180" fill="url(#nebula2)" opacity="0.5"/>
  
  <!-- 大星星 -->
  <circle cx="200" cy="150" r="2" fill="#ffffff" opacity="0.9">
    <animate attributeName="opacity" values="0.9;0.4;0.9" dur="3s" repeatCount="indefinite"/>
  </circle>
  <circle cx="400" cy="80" r="1.5" fill="#e3f2fd" opacity="0.8">
    <animate attributeName="opacity" values="0.8;0.3;0.8" dur="4s" repeatCount="indefinite"/>
  </circle>
  <circle cx="800" cy="200" r="2.5" fill="#ffffff" opacity="1">
    <animate attributeName="opacity" values="1;0.5;1" dur="2.5s" repeatCount="indefinite"/>
  </circle>
  <circle cx="1200" cy="120" r="1.8" fill="#bbdefb" opacity="0.9">
    <animate attributeName="opacity" values="0.9;0.4;0.9" dur="3.5s" repeatCount="indefinite"/>
  </circle>
  <circle cx="1600" cy="180" r="2.2" fill="#ffffff" opacity="0.85">
    <animate attributeName="opacity" values="0.85;0.3;0.85" dur="4.2s" repeatCount="indefinite"/>
  </circle>
  
  <!-- 中等星星 -->
  <circle cx="150" cy="300" r="1.2" fill="#e1f5fe" opacity="0.7"/>
  <circle cx="350" cy="250" r="1" fill="#ffffff" opacity="0.6"/>
  <circle cx="550" cy="180" r="1.3" fill="#f3e5f5" opacity="0.8"/>
  <circle cx="750" cy="320" r="1.1" fill="#e8eaf6" opacity="0.7"/>
  <circle cx="950" cy="100" r="1.4" fill="#ffffff" opacity="0.9"/>
  <circle cx="1150" cy="280" r="1" fill="#e0f2f1" opacity="0.6"/>
  <circle cx="1350" cy="160" r="1.2" fill="#fce4ec" opacity="0.8"/>
  <circle cx="1550" cy="300" r="1.3" fill="#ffffff" opacity="0.7"/>
  <circle cx="1750" cy="220" r="1.1" fill="#e3f2fd" opacity="0.75"/>
  
  <!-- 小星星密集区域 -->
  <circle cx="100" cy="400" r="0.8" fill="#ffffff" opacity="0.5"/>
  <circle cx="180" cy="450" r="0.6" fill="#e1f5fe" opacity="0.4"/>
  <circle cx="250" cy="380" r="0.7" fill="#ffffff" opacity="0.6"/>
  <circle cx="320" cy="420" r="0.5" fill="#f3e5f5" opacity="0.45"/>
  <circle cx="380" cy="460" r="0.8" fill="#e8eaf6" opacity="0.55"/>
  <circle cx="450" cy="390" r="0.6" fill="#ffffff" opacity="0.5"/>
  <circle cx="520" cy="440" r="0.7" fill="#e0f2f1" opacity="0.4"/>
  <circle cx="580" cy="410" r="0.5" fill="#fce4ec" opacity="0.6"/>
  <circle cx="650" cy="470" r="0.8" fill="#ffffff" opacity="0.45"/>
  <circle cx="720" cy="400" r="0.6" fill="#e3f2fd" opacity="0.5"/>
  
  <circle cx="850" cy="500" r="0.7" fill="#ffffff" opacity="0.6"/>
  <circle cx="920" cy="450" r="0.5" fill="#e1f5fe" opacity="0.4"/>
  <circle cx="980" cy="520" r="0.8" fill="#f3e5f5" opacity="0.55"/>
  <circle cx="1050" cy="480" r="0.6" fill="#e8eaf6" opacity="0.45"/>
  <circle cx="1120" cy="510" r="0.7" fill="#ffffff" opacity="0.5"/>
  <circle cx="1180" cy="460" r="0.5" fill="#e0f2f1" opacity="0.6"/>
  <circle cx="1250" cy="500" r="0.8" fill="#fce4ec" opacity="0.4"/>
  <circle cx="1320" cy="470" r="0.6" fill="#ffffff" opacity="0.55"/>
  <circle cx="1380" cy="520" r="0.7" fill="#e3f2fd" opacity="0.45"/>
  <circle cx="1450" cy="490" r="0.5" fill="#bbdefb" opacity="0.5"/>
  
  <!-- 更多小星星 -->
  <circle cx="200" cy="600" r="0.4" fill="#ffffff" opacity="0.3"/>
  <circle cx="300" cy="650" r="0.5" fill="#e1f5fe" opacity="0.4"/>
  <circle cx="450" cy="580" r="0.3" fill="#f3e5f5" opacity="0.35"/>
  <circle cx="600" cy="620" r="0.6" fill="#ffffff" opacity="0.45"/>
  <circle cx="750" cy="680" r="0.4" fill="#e8eaf6" opacity="0.3"/>
  <circle cx="900" cy="640" r="0.5" fill="#e0f2f1" opacity="0.4"/>
  <circle cx="1050" cy="690" r="0.3" fill="#fce4ec" opacity="0.35"/>
  <circle cx="1200" cy="610" r="0.6" fill="#ffffff" opacity="0.45"/>
  <circle cx="1350" cy="660" r="0.4" fill="#e3f2fd" opacity="0.3"/>
  <circle cx="1500" cy="630" r="0.5" fill="#bbdefb" opacity="0.4"/>
  <circle cx="1650" cy="680" r="0.3" fill="#ffffff" opacity="0.35"/>
  <circle cx="1800" cy="620" r="0.4" fill="#e1f5fe" opacity="0.3"/>
  
  <!-- 底部星星 -->
  <circle cx="150" cy="800" r="0.6" fill="#ffffff" opacity="0.4"/>
  <circle cx="350" cy="850" r="0.4" fill="#e1f5fe" opacity="0.3"/>
  <circle cx="550" cy="780" r="0.5" fill="#f3e5f5" opacity="0.35"/>
  <circle cx="750" cy="820" r="0.3" fill="#e8eaf6" opacity="0.4"/>
  <circle cx="950" cy="870" r="0.6" fill="#ffffff" opacity="0.3"/>
  <circle cx="1150" cy="800" r="0.4" fill="#e0f2f1" opacity="0.35"/>
  <circle cx="1350" cy="840" r="0.5" fill="#fce4ec" opacity="0.4"/>
  <circle cx="1550" cy="880" r="0.3" fill="#e3f2fd" opacity="0.3"/>
  <circle cx="1750" cy="810" r="0.4" fill="#bbdefb" opacity="0.35"/>
  
  <!-- 微小星星点缀 -->
  <circle cx="80" cy="200" r="0.2" fill="#ffffff" opacity="0.2"/>
  <circle cx="120" cy="350" r="0.3" fill="#e1f5fe" opacity="0.25"/>
  <circle cx="280" cy="180" r="0.2" fill="#f3e5f5" opacity="0.2"/>
  <circle cx="480" cy="320" r="0.3" fill="#ffffff" opacity="0.3"/>
  <circle cx="680" cy="150" r="0.2" fill="#e8eaf6" opacity="0.2"/>
  <circle cx="880" cy="280" r="0.3" fill="#e0f2f1" opacity="0.25"/>
  <circle cx="1080" cy="200" r="0.2" fill="#fce4ec" opacity="0.2"/>
  <circle cx="1280" cy="350" r="0.3" fill="#ffffff" opacity="0.3"/>
  <circle cx="1480" cy="180" r="0.2" fill="#e3f2fd" opacity="0.2"/>
  <circle cx="1680" cy="320" r="0.3" fill="#bbdefb" opacity="0.25"/>
  <circle cx="1880" cy="250" r="0.2" fill="#ffffff" opacity="0.2"/>
  
  <!-- 更多微小星星 -->
  <circle cx="60" cy="500" r="0.2" fill="#ffffff" opacity="0.15"/>
  <circle cx="160" cy="550" r="0.2" fill="#e1f5fe" opacity="0.2"/>
  <circle cx="260" cy="520" r="0.2" fill="#f3e5f5" opacity="0.15"/>
  <circle cx="360" cy="580" r="0.2" fill="#e8eaf6" opacity="0.2"/>
  <circle cx="460" cy="510" r="0.2" fill="#ffffff" opacity="0.15"/>
  <circle cx="560" cy="560" r="0.2" fill="#e0f2f1" opacity="0.2"/>
  <circle cx="660" cy="530" r="0.2" fill="#fce4ec" opacity="0.15"/>
  <circle cx="760" cy="570" r="0.2" fill="#e3f2fd" opacity="0.2"/>
  <circle cx="860" cy="540" r="0.2" fill="#bbdefb" opacity="0.15"/>
  <circle cx="960" cy="590" r="0.2" fill="#ffffff" opacity="0.2"/>
  
  <!-- 流星效果 -->
  <g opacity="0.6">
    <line x1="1400" y1="300" x2="1450" y2="350" stroke="#ffffff" stroke-width="1" opacity="0.8">
      <animate attributeName="opacity" values="0;0.8;0" dur="6s" repeatCount="indefinite"/>
      <animateTransform attributeName="transform" type="translate" values="0,0; 100,100; 200,200" dur="6s" repeatCount="indefinite"/>
    </line>
    <circle cx="1400" cy="300" r="1.5" fill="#ffffff">
      <animate attributeName="opacity" values="0;1;0" dur="6s" repeatCount="indefinite"/>
      <animateTransform attributeName="transform" type="translate" values="0,0; 100,100; 200,200" dur="6s" repeatCount="indefinite"/>
    </circle>
  </g>
  
  <!-- 银河系效果 -->
  <path d="M 0,600 Q 480,500 960,550 T 1920,600" stroke="rgba(255,255,255,0.1)" stroke-width="80" fill="none" opacity="0.3"/>
  <path d="M 0,620 Q 480,520 960,570 T 1920,620" stroke="rgba(200,200,255,0.08)" stroke-width="60" fill="none" opacity="0.4"/>
  
</svg>